<mxfile host="app.diagrams.net" modified="2022-11-09T13:25:50.778Z" agent="5.0 (Macintosh; Intel Mac OS X 10_15_7) AppleWebKit/537.36 (KHTML, like Gecko) Chrome/105.0.0.0 Safari/537.36" etag="dXVuUbMewCEQthVMsB4f" version="20.5.3" type="github">
  <diagram id="eqaJN9r5R6-n2fAist-j" name="Page-1">
    <mxGraphModel dx="1472" dy="519" grid="1" gridSize="10" guides="1" tooltips="1" connect="1" arrows="1" fold="1" page="1" pageScale="1" pageWidth="827" pageHeight="1169" math="0" shadow="0">
      <root>
        <mxCell id="0" />
        <mxCell id="1" parent="0" />
        <mxCell id="kF1K-4nqyDAZzZv0uPib-24" value="" style="rounded=1;whiteSpace=wrap;html=1;fillColor=#fff2cc;strokeColor=#d6b656;" vertex="1" parent="1">
          <mxGeometry x="80" y="740" width="520" height="100" as="geometry" />
        </mxCell>
        <mxCell id="kF1K-4nqyDAZzZv0uPib-23" value="" style="rounded=1;whiteSpace=wrap;html=1;fillColor=#d5e8d4;strokeColor=#82b366;" vertex="1" parent="1">
          <mxGeometry x="80" y="640" width="520" height="100" as="geometry" />
        </mxCell>
        <mxCell id="kF1K-4nqyDAZzZv0uPib-22" value="" style="rounded=1;whiteSpace=wrap;html=1;fillColor=#d5e8d4;strokeColor=#82b366;" vertex="1" parent="1">
          <mxGeometry x="80" y="540" width="520" height="100" as="geometry" />
        </mxCell>
        <mxCell id="kF1K-4nqyDAZzZv0uPib-21" value="" style="rounded=1;whiteSpace=wrap;html=1;fillColor=#fff2cc;strokeColor=#d6b656;" vertex="1" parent="1">
          <mxGeometry x="80" y="440" width="520" height="100" as="geometry" />
        </mxCell>
        <mxCell id="kF1K-4nqyDAZzZv0uPib-20" value="" style="rounded=1;whiteSpace=wrap;html=1;fillColor=#f5f5f5;fontColor=#333333;strokeColor=#666666;" vertex="1" parent="1">
          <mxGeometry x="80" y="40" width="520" height="100" as="geometry" />
        </mxCell>
        <mxCell id="kF1K-4nqyDAZzZv0uPib-19" value="" style="rounded=1;whiteSpace=wrap;html=1;fillColor=#dae8fc;strokeColor=#6c8ebf;" vertex="1" parent="1">
          <mxGeometry x="80" y="140" width="520" height="100" as="geometry" />
        </mxCell>
        <mxCell id="kF1K-4nqyDAZzZv0uPib-18" value="" style="rounded=1;whiteSpace=wrap;html=1;fillColor=#fff2cc;strokeColor=#d6b656;" vertex="1" parent="1">
          <mxGeometry x="80" y="240" width="520" height="100" as="geometry" />
        </mxCell>
        <mxCell id="kF1K-4nqyDAZzZv0uPib-14" value="" style="rounded=1;whiteSpace=wrap;html=1;fillColor=#dae8fc;strokeColor=#6c8ebf;" vertex="1" parent="1">
          <mxGeometry x="80" y="340" width="520" height="100" as="geometry" />
        </mxCell>
        <mxCell id="kF1K-4nqyDAZzZv0uPib-3" value="2a.Create a project" style="shape=process;whiteSpace=wrap;html=1;backgroundOutline=1;" vertex="1" parent="1">
          <mxGeometry x="150" y="160" width="120" height="60" as="geometry" />
        </mxCell>
        <UserObject label="1.Before you start" link="https://ebi-ait.github.io/ingest-programmatic-submissions/docs/introduction/introduction.html" id="kF1K-4nqyDAZzZv0uPib-4">
          <mxCell style="shape=process;whiteSpace=wrap;html=1;backgroundOutline=1;" vertex="1" parent="1">
            <mxGeometry x="270" y="60" width="120" height="60" as="geometry" />
          </mxCell>
        </UserObject>
        <mxCell id="kF1K-4nqyDAZzZv0uPib-5" value="2b.Create an empty submission" style="shape=process;whiteSpace=wrap;html=1;backgroundOutline=1;" vertex="1" parent="1">
          <mxGeometry x="390" y="160" width="120" height="60" as="geometry" />
        </mxCell>
        <mxCell id="kF1K-4nqyDAZzZv0uPib-6" value="3.Link a project and a submission together" style="shape=process;whiteSpace=wrap;html=1;backgroundOutline=1;" vertex="1" parent="1">
          <mxGeometry x="270" y="260" width="120" height="60" as="geometry" />
        </mxCell>
        <mxCell id="kF1K-4nqyDAZzZv0uPib-7" value="4a. Create biomaterials" style="shape=process;whiteSpace=wrap;html=1;backgroundOutline=1;" vertex="1" parent="1">
          <mxGeometry x="100" y="360" width="120" height="60" as="geometry" />
        </mxCell>
        <mxCell id="kF1K-4nqyDAZzZv0uPib-8" value="4b. Create protocols" style="shape=process;whiteSpace=wrap;html=1;backgroundOutline=1;" vertex="1" parent="1">
          <mxGeometry x="270" y="360" width="120" height="60" as="geometry" />
        </mxCell>
        <mxCell id="kF1K-4nqyDAZzZv0uPib-9" value="4b. Create file metadata" style="shape=process;whiteSpace=wrap;html=1;backgroundOutline=1;" vertex="1" parent="1">
          <mxGeometry x="440" y="360" width="120" height="60" as="geometry" />
        </mxCell>
        <mxCell id="kF1K-4nqyDAZzZv0uPib-10" value="5. Link biomaterials, protocols and files" style="shape=process;whiteSpace=wrap;html=1;backgroundOutline=1;" vertex="1" parent="1">
          <mxGeometry x="270" y="460" width="120" height="60" as="geometry" />
        </mxCell>
        <mxCell id="kF1K-4nqyDAZzZv0uPib-11" value="6. Visualize your experiment" style="shape=process;whiteSpace=wrap;html=1;backgroundOutline=1;" vertex="1" parent="1">
          <mxGeometry x="270" y="560" width="120" height="60" as="geometry" />
        </mxCell>
        <mxCell id="kF1K-4nqyDAZzZv0uPib-12" value="7. Upload your data files" style="shape=process;whiteSpace=wrap;html=1;backgroundOutline=1;" vertex="1" parent="1">
          <mxGeometry x="270" y="660" width="120" height="60" as="geometry" />
        </mxCell>
        <mxCell id="kF1K-4nqyDAZzZv0uPib-13" value="8. Trigger validation and submit your data" style="shape=process;whiteSpace=wrap;html=1;backgroundOutline=1;" vertex="1" parent="1">
          <mxGeometry x="270" y="760" width="120" height="60" as="geometry" />
        </mxCell>
        <mxCell id="kF1K-4nqyDAZzZv0uPib-16" value="" style="shape=flexArrow;endArrow=classic;html=1;rounded=0;fillColor=default;gradientColor=#666666;" edge="1" parent="1">
          <mxGeometry width="50" height="50" relative="1" as="geometry">
            <mxPoint x="620" y="40" as="sourcePoint" />
            <mxPoint x="620" y="840" as="targetPoint" />
          </mxGeometry>
        </mxCell>
        <mxCell id="kF1K-4nqyDAZzZv0uPib-26" value="All theory" style="rounded=1;whiteSpace=wrap;html=1;fillColor=#f5f5f5;fontColor=#333333;strokeColor=#666666;" vertex="1" parent="1">
          <mxGeometry x="640" y="50" width="120" height="60" as="geometry" />
        </mxCell>
        <mxCell id="kF1K-4nqyDAZzZv0uPib-27" value="Create/Delete/Modify objects" style="rounded=1;whiteSpace=wrap;html=1;fillColor=#dae8fc;strokeColor=#6c8ebf;" vertex="1" parent="1">
          <mxGeometry x="640" y="120" width="120" height="60" as="geometry" />
        </mxCell>
        <mxCell id="kF1K-4nqyDAZzZv0uPib-28" value="Ingest-core interactions" style="rounded=1;whiteSpace=wrap;html=1;fillColor=#fff2cc;strokeColor=#d6b656;" vertex="1" parent="1">
          <mxGeometry x="640" y="190" width="120" height="60" as="geometry" />
        </mxCell>
        <mxCell id="kF1K-4nqyDAZzZv0uPib-29" value="Using external tools (Python, docker)" style="rounded=1;whiteSpace=wrap;html=1;fillColor=#d5e8d4;strokeColor=#82b366;" vertex="1" parent="1">
          <mxGeometry x="640" y="260" width="120" height="60" as="geometry" />
        </mxCell>
        <mxCell id="kF1K-4nqyDAZzZv0uPib-30" value="Ingest programmatic submission steps" style="swimlane;whiteSpace=wrap;html=1;fillColor=default;gradientColor=none;" vertex="1" parent="1">
          <mxGeometry x="80" y="20" width="520" height="820" as="geometry" />
        </mxCell>
      </root>
    </mxGraphModel>
  </diagram>
</mxfile>
